<svg width="522" height="150" viewBox="0 0 522 150" fill="none" xmlns="http://www.w3.org/2000/svg">
<g clip-path="url(#clip0_143_93)">
<path d="M471.029 2.31029C470.853 1.37279 470.22 0.587638 469.342 0.224357C468.463 -0.138924 467.455 -0.0334553 466.67 0.505607L457.002 7.16185L447.334 0.493888C446.549 -0.0451741 445.541 -0.150643 444.662 0.212638C443.783 0.575919 443.15 1.36108 442.974 2.29857L440.853 13.8415L429.31 15.9743C428.373 16.1501 427.588 16.7829 427.224 17.6618C426.861 18.5408 426.967 19.5486 427.506 20.3337L434.162 30.0017L427.494 39.6696C426.955 40.4548 426.849 41.4626 427.213 42.3415C427.576 43.2204 428.361 43.865 429.299 44.029L440.842 46.1501L442.963 57.6931C443.138 58.6306 443.771 59.4157 444.65 59.779C445.529 60.1423 446.537 60.0368 447.322 59.4978L457.002 52.8415L466.67 59.5095C467.455 60.0485 468.463 60.154 469.342 59.7907C470.22 59.4275 470.853 58.6423 471.029 57.7048L473.15 46.1618L484.693 44.0407C485.631 43.865 486.416 43.2321 486.779 42.3532C487.142 41.4743 487.037 40.4665 486.498 39.6814L479.842 30.0017L486.509 20.3337C487.049 19.5486 487.154 18.5408 486.791 17.6618C486.427 16.7829 485.642 16.1501 484.705 15.9743L473.162 13.8533L471.029 2.31029ZM458.595 12.8923L466.283 7.59545L467.97 16.7712C468.181 17.9197 469.084 18.822 470.232 19.0329L479.408 20.7204L474.111 28.4079C473.443 29.3689 473.443 30.6345 474.111 31.5954L479.408 39.2829L470.232 40.9704C469.084 41.1814 468.181 42.0837 467.97 43.2321L466.283 52.4079L458.595 47.111C457.634 46.4431 456.369 46.4431 455.408 47.111L447.72 52.4079L446.033 43.2321C445.822 42.0837 444.92 41.1814 443.771 40.9704L434.595 39.2829L439.892 31.5954C440.56 30.6345 440.56 29.3689 439.892 28.4079L434.595 20.7204L443.771 19.0329C444.92 18.822 445.822 17.9197 446.033 16.7712L447.72 7.59545L455.408 12.8923C456.369 13.5603 457.634 13.5603 458.595 12.8923ZM457.002 43.1267C460.483 43.1267 463.821 41.7439 466.282 39.2825C468.744 36.821 470.127 33.4827 470.127 30.0017C470.127 26.5207 468.744 23.1823 466.282 20.7209C463.821 18.2595 460.483 16.8767 457.002 16.8767C453.521 16.8767 450.182 18.2595 447.721 20.7209C445.26 23.1823 443.877 26.5207 443.877 30.0017C443.877 33.4827 445.26 36.821 447.721 39.2825C450.182 41.7439 453.521 43.1267 457.002 43.1267ZM449.502 30.0017C449.502 28.0126 450.292 26.1049 451.698 24.6984C453.105 23.2919 455.013 22.5017 457.002 22.5017C458.991 22.5017 460.898 23.2919 462.305 24.6984C463.712 26.1049 464.502 28.0126 464.502 30.0017C464.502 31.9908 463.712 33.8985 462.305 35.305C460.898 36.7115 458.991 37.5017 457.002 37.5017C455.013 37.5017 453.105 36.7115 451.698 35.305C450.292 33.8985 449.502 31.9908 449.502 30.0017Z" fill="#F6C223"/>
</g>
<path d="M79.944 57.328V47.44H97.704V70.288C97.704 78.736 93.736 82.96 85.8 82.96H73.704C65.768 82.96 61.8 78.736 61.8 70.288V31.6C61.8 23.152 65.768 18.928 73.704 18.928H85.8C93.736 18.928 97.704 23.152 97.704 31.6V37.456H84.936V29.968C84.936 29.456 84.744 29.008 84.36 28.624C84.04 28.24 83.624 28.048 83.112 28.048H77.064C76.552 28.048 76.104 28.24 75.72 28.624C75.4 29.008 75.24 29.456 75.24 29.968V71.824C75.24 72.336 75.4 72.784 75.72 73.168C76.104 73.552 76.552 73.744 77.064 73.744H83.112C83.624 73.744 84.04 73.552 84.36 73.168C84.744 72.784 84.936 72.336 84.936 71.824V57.328H79.944ZM124.601 34.192H127.097V46.672H120.761C118.585 46.672 117.497 47.792 117.497 50.032V82H104.633V35.152H116.345V39.664C118.201 36.016 120.953 34.192 124.601 34.192ZM167.507 46.864V70.288C167.507 78.736 163.539 82.96 155.603 82.96H144.755C136.819 82.96 132.851 78.736 132.851 70.288V46.864C132.851 38.416 136.819 34.192 144.755 34.192H155.603C163.539 34.192 167.507 38.416 167.507 46.864ZM154.643 72.976V44.08C154.643 43.568 154.451 43.12 154.067 42.736C153.747 42.352 153.331 42.16 152.819 42.16H147.539C147.027 42.16 146.579 42.352 146.195 42.736C145.875 43.12 145.715 43.568 145.715 44.08V72.976C145.715 73.488 145.875 73.936 146.195 74.32C146.579 74.704 147.027 74.896 147.539 74.896H152.819C153.331 74.896 153.747 74.704 154.067 74.32C154.451 73.936 154.643 73.488 154.643 72.976ZM197.57 35.152H209.858L216.866 71.536L222.338 35.152H234.818L224.546 82H208.994L203.714 53.104L198.434 82H182.882L172.61 35.152H185.09L190.562 71.536L197.57 35.152ZM253.74 57.616V82H240.3V19.888H253.74V45.904H264.396V19.888H277.836V82H264.396V57.616H253.74ZM310.784 35.152H321.632V82H310.784V78.544C308.8 81.488 305.504 82.96 300.896 82.96H298.88C290.944 82.96 286.976 78.736 286.976 70.288V46.864C286.976 38.416 290.944 34.192 298.88 34.192H300.896C305.504 34.192 308.8 35.664 310.784 38.608V35.152ZM308.768 71.824V45.328C308.768 44.816 308.576 44.368 308.192 43.984C307.872 43.6 307.456 43.408 306.944 43.408H301.664C301.152 43.408 300.704 43.6 300.32 43.984C300 44.368 299.84 44.816 299.84 45.328V71.824C299.84 72.336 300 72.784 300.32 73.168C300.704 73.552 301.152 73.744 301.664 73.744H306.944C307.456 73.744 307.872 73.552 308.192 73.168C308.576 72.784 308.768 72.336 308.768 71.824ZM351.119 34.192H353.135C361.071 34.192 365.039 38.416 365.039 46.864V70.288C365.039 78.736 361.071 82.96 353.135 82.96H351.119C346.511 82.96 343.215 81.488 341.231 78.544V82H330.383V19.888H343.247V36.496C345.295 34.96 347.919 34.192 351.119 34.192ZM343.247 45.328V71.824C343.247 72.336 343.407 72.784 343.727 73.168C344.111 73.552 344.559 73.744 345.071 73.744H350.351C350.863 73.744 351.279 73.552 351.599 73.168C351.983 72.784 352.175 72.336 352.175 71.824V45.328C352.175 44.816 351.983 44.368 351.599 43.984C351.279 43.6 350.863 43.408 350.351 43.408H345.071C344.559 43.408 344.111 43.6 343.727 43.984C343.407 44.368 343.247 44.816 343.247 45.328ZM386.845 29.296C385.501 30.64 383.869 31.312 381.949 31.312C380.029 31.312 378.365 30.64 376.957 29.296C375.549 27.888 374.845 26.224 374.845 24.304C374.845 22.32 375.549 20.656 376.957 19.312C378.365 17.904 380.029 17.2 381.949 17.2C383.869 17.2 385.501 17.904 386.845 19.312C388.253 20.656 388.957 22.32 388.957 24.304C388.957 26.288 388.253 27.952 386.845 29.296ZM375.517 82V35.152H388.381V82H375.517ZM414.502 74.608H418.342V82.96H409.318C401.382 82.96 397.414 78.736 397.414 70.288V24.976H410.278V35.152H418.342V44.464H410.278V70C410.278 71.792 410.63 73.008 411.334 73.648C412.038 74.288 413.094 74.608 414.502 74.608ZM447.15 52.624C455.086 52.624 459.054 56.848 459.054 65.296V70.288C459.054 78.736 455.086 82.96 447.15 82.96H436.494C428.558 82.96 424.59 78.736 424.59 70.288V67.312H436.494V71.536C436.494 72.048 436.654 72.496 436.974 72.88C437.358 73.264 437.806 73.456 438.318 73.456H446.19C446.702 73.456 447.118 73.264 447.438 72.88C447.822 72.496 448.014 72.048 448.014 71.536V65.776C448.014 65.264 447.822 64.816 447.438 64.432C447.118 64.048 446.702 63.856 446.19 63.856H436.302C428.366 63.856 424.398 59.632 424.398 51.184V46.864C424.398 38.416 428.366 34.192 436.302 34.192H446.382C454.318 34.192 458.286 38.416 458.286 46.864V48.592H446.382V45.616C446.382 45.104 446.19 44.656 445.806 44.272C445.486 43.888 445.07 43.696 444.558 43.696H437.262C436.75 43.696 436.302 43.888 435.918 44.272C435.598 44.656 435.438 45.104 435.438 45.616V50.704C435.438 51.216 435.598 51.664 435.918 52.048C436.302 52.432 436.75 52.624 437.262 52.624H447.15Z" fill="#006459"/>
<path d="M42.2188 126.172H36.375L36.3438 122.766H41.1719C42.026 122.766 42.7188 122.661 43.25 122.453C43.7917 122.245 44.1875 121.943 44.4375 121.547C44.6875 121.141 44.8125 120.641 44.8125 120.047C44.8125 119.37 44.6875 118.823 44.4375 118.406C44.1875 117.99 43.7917 117.688 43.25 117.5C42.7188 117.302 42.0312 117.203 41.1875 117.203H38.2188V136H33.125V113.25H41.1875C42.5521 113.25 43.7708 113.375 44.8438 113.625C45.9167 113.875 46.8281 114.26 47.5781 114.781C48.3385 115.302 48.9167 115.953 49.3125 116.734C49.7083 117.516 49.9062 118.438 49.9062 119.5C49.9062 120.427 49.6979 121.292 49.2812 122.094C48.875 122.896 48.2188 123.547 47.3125 124.047C46.4062 124.547 45.1927 124.818 43.6719 124.859L42.2188 126.172ZM42.0156 136H35.0781L36.9219 132.062H42.0156C42.7969 132.062 43.4323 131.938 43.9219 131.688C44.4115 131.438 44.7708 131.099 45 130.672C45.2292 130.245 45.3438 129.766 45.3438 129.234C45.3438 128.609 45.2344 128.068 45.0156 127.609C44.8073 127.151 44.474 126.797 44.0156 126.547C43.5677 126.297 42.9688 126.172 42.2188 126.172H37.6562L37.6875 122.766H43.2656L44.4531 124.109C45.901 124.078 47.0573 124.312 47.9219 124.812C48.7969 125.302 49.4271 125.948 49.8125 126.75C50.1979 127.552 50.3906 128.401 50.3906 129.297C50.3906 130.776 50.0729 132.016 49.4375 133.016C48.8021 134.005 47.8594 134.75 46.6094 135.25C45.3698 135.75 43.8385 136 42.0156 136ZM61.4062 136.312C60.0625 136.312 58.8594 136.099 57.7969 135.672C56.7344 135.245 55.8333 134.656 55.0938 133.906C54.3646 133.146 53.8073 132.271 53.4219 131.281C53.0365 130.292 52.8438 129.234 52.8438 128.109V127.516C52.8438 126.255 53.0208 125.094 53.375 124.031C53.7292 122.969 54.2448 122.047 54.9219 121.266C55.6094 120.474 56.4531 119.865 57.4531 119.438C58.4531 119 59.5938 118.781 60.875 118.781C62.0729 118.781 63.1406 118.979 64.0781 119.375C65.0156 119.76 65.8073 120.318 66.4531 121.047C67.099 121.766 67.5885 122.635 67.9219 123.656C68.2656 124.667 68.4375 125.802 68.4375 127.062V129.062H54.8125V125.922H63.6562V125.547C63.6562 124.953 63.5469 124.432 63.3281 123.984C63.1198 123.536 62.8073 123.193 62.3906 122.953C61.9844 122.703 61.4688 122.578 60.8438 122.578C60.25 122.578 59.7552 122.703 59.3594 122.953C58.9635 123.203 58.6458 123.557 58.4062 124.016C58.1771 124.464 58.0104 124.99 57.9062 125.594C57.8021 126.188 57.75 126.828 57.75 127.516V128.109C57.75 128.766 57.8385 129.365 58.0156 129.906C58.1927 130.448 58.4531 130.911 58.7969 131.297C59.1406 131.682 59.5573 131.984 60.0469 132.203C60.5365 132.422 61.0938 132.531 61.7188 132.531C62.4896 132.531 63.224 132.385 63.9219 132.094C64.6198 131.792 65.224 131.323 65.7344 130.688L68.0156 133.297C67.6719 133.797 67.1875 134.281 66.5625 134.75C65.9479 135.208 65.2083 135.583 64.3438 135.875C63.4792 136.167 62.5 136.312 61.4062 136.312ZM77.875 132.516C78.3958 132.516 78.849 132.417 79.2344 132.219C79.6198 132.021 79.9167 131.745 80.125 131.391C80.3438 131.026 80.4531 130.589 80.4531 130.078H85.0469C85.0469 131.307 84.7292 132.391 84.0938 133.328C83.4688 134.266 82.625 135 81.5625 135.531C80.5 136.052 79.3021 136.312 77.9688 136.312C76.6562 136.312 75.5104 136.099 74.5312 135.672C73.5521 135.234 72.7344 134.625 72.0781 133.844C71.4219 133.062 70.9271 132.156 70.5938 131.125C70.2708 130.083 70.1094 128.958 70.1094 127.75V127.344C70.1094 126.146 70.2708 125.026 70.5938 123.984C70.9271 122.943 71.4219 122.031 72.0781 121.25C72.7344 120.469 73.5469 119.865 74.5156 119.438C75.4948 119 76.6406 118.781 77.9531 118.781C79.3385 118.781 80.5625 119.047 81.625 119.578C82.6979 120.109 83.5365 120.875 84.1406 121.875C84.7448 122.865 85.0469 124.057 85.0469 125.453H80.4531C80.4531 124.911 80.3542 124.427 80.1562 124C79.9688 123.562 79.6771 123.219 79.2812 122.969C78.8958 122.708 78.4167 122.578 77.8438 122.578C77.25 122.578 76.7604 122.708 76.375 122.969C76 123.219 75.7135 123.568 75.5156 124.016C75.3177 124.464 75.1823 124.974 75.1094 125.547C75.0365 126.109 75 126.708 75 127.344V127.75C75 128.396 75.0365 129.01 75.1094 129.594C75.1823 130.167 75.3177 130.672 75.5156 131.109C75.724 131.547 76.0156 131.891 76.3906 132.141C76.7656 132.391 77.2604 132.516 77.875 132.516ZM96.4219 131.969V124.719C96.4219 124.208 96.3438 123.771 96.1875 123.406C96.0312 123.042 95.7865 122.755 95.4531 122.547C95.1198 122.339 94.6875 122.234 94.1562 122.234C93.7083 122.234 93.3177 122.312 92.9844 122.469C92.6615 122.625 92.4115 122.849 92.2344 123.141C92.0677 123.432 91.9844 123.792 91.9844 124.219H87.1094C87.1094 123.458 87.2812 122.75 87.625 122.094C87.9688 121.438 88.4583 120.859 89.0938 120.359C89.7396 119.859 90.5104 119.474 91.4062 119.203C92.3021 118.922 93.3073 118.781 94.4219 118.781C95.7448 118.781 96.9219 119.005 97.9531 119.453C98.9948 119.891 99.8177 120.552 100.422 121.438C101.026 122.312 101.328 123.417 101.328 124.75V131.828C101.328 132.849 101.385 133.651 101.5 134.234C101.625 134.807 101.802 135.307 102.031 135.734V136H97.1094C96.8802 135.51 96.7083 134.906 96.5938 134.188C96.4792 133.458 96.4219 132.719 96.4219 131.969ZM97.0312 125.688L97.0625 128.375H94.6406C94.099 128.375 93.6302 128.443 93.2344 128.578C92.849 128.714 92.5365 128.901 92.2969 129.141C92.0573 129.37 91.8802 129.641 91.7656 129.953C91.6615 130.255 91.6094 130.589 91.6094 130.953C91.6094 131.297 91.6927 131.609 91.8594 131.891C92.026 132.161 92.2552 132.375 92.5469 132.531C92.8385 132.688 93.1771 132.766 93.5625 132.766C94.1979 132.766 94.7396 132.641 95.1875 132.391C95.6458 132.141 96 131.839 96.25 131.484C96.5 131.12 96.625 130.781 96.625 130.469L97.7969 132.5C97.6094 132.917 97.3802 133.349 97.1094 133.797C96.8385 134.234 96.4948 134.646 96.0781 135.031C95.6615 135.406 95.1562 135.714 94.5625 135.953C93.9792 136.193 93.276 136.312 92.4531 136.312C91.3906 136.312 90.4271 136.099 89.5625 135.672C88.6979 135.234 88.0052 134.635 87.4844 133.875C86.974 133.115 86.7188 132.24 86.7188 131.25C86.7188 130.365 86.8802 129.578 87.2031 128.891C87.526 128.203 88.0104 127.62 88.6562 127.141C89.3125 126.661 90.1354 126.302 91.125 126.062C92.1146 125.812 93.2708 125.688 94.5938 125.688H97.0312ZM114.453 131.922V119.094H119.359V136H114.766L114.453 131.922ZM114.969 128.469L116.312 128.438C116.312 129.573 116.177 130.62 115.906 131.578C115.646 132.536 115.25 133.37 114.719 134.078C114.198 134.786 113.547 135.339 112.766 135.734C111.995 136.12 111.094 136.312 110.062 136.312C109.229 136.312 108.464 136.198 107.766 135.969C107.078 135.729 106.484 135.359 105.984 134.859C105.484 134.349 105.099 133.698 104.828 132.906C104.557 132.104 104.422 131.146 104.422 130.031V119.094H109.297V130.062C109.297 130.5 109.349 130.875 109.453 131.188C109.568 131.49 109.719 131.74 109.906 131.938C110.104 132.135 110.344 132.281 110.625 132.375C110.917 132.469 111.234 132.516 111.578 132.516C112.443 132.516 113.12 132.339 113.609 131.984C114.109 131.62 114.458 131.135 114.656 130.531C114.865 129.917 114.969 129.229 114.969 128.469ZM131.531 131.297C131.531 130.984 131.432 130.708 131.234 130.469C131.047 130.229 130.703 130.01 130.203 129.812C129.714 129.615 129.021 129.417 128.125 129.219C127.281 129.042 126.495 128.812 125.766 128.531C125.036 128.24 124.401 127.891 123.859 127.484C123.318 127.068 122.896 126.578 122.594 126.016C122.292 125.443 122.141 124.792 122.141 124.062C122.141 123.354 122.292 122.682 122.594 122.047C122.906 121.411 123.354 120.849 123.938 120.359C124.531 119.87 125.25 119.484 126.094 119.203C126.948 118.922 127.917 118.781 129 118.781C130.49 118.781 131.776 119.016 132.859 119.484C133.943 119.943 134.776 120.589 135.359 121.422C135.943 122.245 136.234 123.188 136.234 124.25H131.359C131.359 123.812 131.276 123.432 131.109 123.109C130.943 122.786 130.688 122.536 130.344 122.359C130 122.172 129.547 122.078 128.984 122.078C128.547 122.078 128.161 122.156 127.828 122.312C127.505 122.458 127.25 122.661 127.062 122.922C126.885 123.182 126.797 123.484 126.797 123.828C126.797 124.068 126.849 124.286 126.953 124.484C127.068 124.672 127.24 124.849 127.469 125.016C127.708 125.172 128.016 125.312 128.391 125.438C128.776 125.562 129.245 125.682 129.797 125.797C130.974 126.016 132.047 126.323 133.016 126.719C133.995 127.115 134.776 127.661 135.359 128.359C135.953 129.057 136.25 129.979 136.25 131.125C136.25 131.875 136.078 132.562 135.734 133.188C135.401 133.812 134.917 134.359 134.281 134.828C133.646 135.297 132.885 135.661 132 135.922C131.115 136.182 130.115 136.312 129 136.312C127.406 136.312 126.057 136.026 124.953 135.453C123.849 134.88 123.016 134.161 122.453 133.297C121.901 132.422 121.625 131.526 121.625 130.609H126.203C126.224 131.172 126.365 131.63 126.625 131.984C126.896 132.339 127.245 132.599 127.672 132.766C128.099 132.922 128.578 133 129.109 133C129.641 133 130.083 132.927 130.438 132.781C130.792 132.635 131.062 132.438 131.25 132.188C131.438 131.927 131.531 131.63 131.531 131.297ZM146.938 136.312C145.594 136.312 144.391 136.099 143.328 135.672C142.266 135.245 141.365 134.656 140.625 133.906C139.896 133.146 139.339 132.271 138.953 131.281C138.568 130.292 138.375 129.234 138.375 128.109V127.516C138.375 126.255 138.552 125.094 138.906 124.031C139.26 122.969 139.776 122.047 140.453 121.266C141.141 120.474 141.984 119.865 142.984 119.438C143.984 119 145.125 118.781 146.406 118.781C147.604 118.781 148.672 118.979 149.609 119.375C150.547 119.76 151.339 120.318 151.984 121.047C152.63 121.766 153.12 122.635 153.453 123.656C153.797 124.667 153.969 125.802 153.969 127.062V129.062H140.344V125.922H149.188V125.547C149.188 124.953 149.078 124.432 148.859 123.984C148.651 123.536 148.339 123.193 147.922 122.953C147.516 122.703 147 122.578 146.375 122.578C145.781 122.578 145.286 122.703 144.891 122.953C144.495 123.203 144.177 123.557 143.938 124.016C143.708 124.464 143.542 124.99 143.438 125.594C143.333 126.188 143.281 126.828 143.281 127.516V128.109C143.281 128.766 143.37 129.365 143.547 129.906C143.724 130.448 143.984 130.911 144.328 131.297C144.672 131.682 145.089 131.984 145.578 132.203C146.068 132.422 146.625 132.531 147.25 132.531C148.021 132.531 148.755 132.385 149.453 132.094C150.151 131.792 150.755 131.323 151.266 130.688L153.547 133.297C153.203 133.797 152.719 134.281 152.094 134.75C151.479 135.208 150.74 135.583 149.875 135.875C149.01 136.167 148.031 136.312 146.938 136.312ZM174.969 119.094H179.406V135.391C179.406 136.943 179.052 138.26 178.344 139.344C177.646 140.427 176.672 141.25 175.422 141.812C174.172 142.375 172.708 142.656 171.031 142.656C170.302 142.656 169.542 142.557 168.75 142.359C167.958 142.172 167.214 141.885 166.516 141.5C165.818 141.125 165.234 140.646 164.766 140.062L166.844 137.188C167.323 137.729 167.896 138.167 168.562 138.5C169.229 138.844 169.99 139.016 170.844 139.016C171.625 139.016 172.286 138.875 172.828 138.594C173.37 138.312 173.781 137.901 174.062 137.359C174.354 136.818 174.5 136.161 174.5 135.391V123.047L174.969 119.094ZM163.672 127.75V127.422C163.672 126.141 163.828 124.974 164.141 123.922C164.453 122.859 164.906 121.948 165.5 121.188C166.104 120.417 166.828 119.823 167.672 119.406C168.526 118.99 169.484 118.781 170.547 118.781C171.693 118.781 172.641 119 173.391 119.438C174.141 119.865 174.75 120.469 175.219 121.25C175.688 122.021 176.057 122.932 176.328 123.984C176.599 125.026 176.818 126.156 176.984 127.375V127.938C176.818 129.104 176.578 130.193 176.266 131.203C175.953 132.214 175.547 133.104 175.047 133.875C174.547 134.635 173.922 135.234 173.172 135.672C172.432 136.099 171.547 136.312 170.516 136.312C169.464 136.312 168.516 136.099 167.672 135.672C166.828 135.245 166.104 134.646 165.5 133.875C164.906 133.104 164.453 132.198 164.141 131.156C163.828 130.115 163.672 128.979 163.672 127.75ZM168.547 127.422V127.75C168.547 128.417 168.609 129.036 168.734 129.609C168.87 130.182 169.068 130.688 169.328 131.125C169.599 131.562 169.932 131.906 170.328 132.156C170.734 132.396 171.208 132.516 171.75 132.516C172.542 132.516 173.182 132.349 173.672 132.016C174.172 131.672 174.536 131.198 174.766 130.594C175.005 129.99 175.13 129.286 175.141 128.484V126.844C175.141 126.177 175.073 125.578 174.938 125.047C174.802 124.516 174.599 124.068 174.328 123.703C174.068 123.339 173.724 123.062 173.297 122.875C172.88 122.677 172.375 122.578 171.781 122.578C171.25 122.578 170.781 122.703 170.375 122.953C169.969 123.193 169.63 123.531 169.359 123.969C169.089 124.406 168.885 124.922 168.75 125.516C168.615 126.099 168.547 126.734 168.547 127.422ZM181.953 127.719V127.391C181.953 126.151 182.13 125.01 182.484 123.969C182.839 122.917 183.359 122.005 184.047 121.234C184.734 120.464 185.578 119.865 186.578 119.438C187.578 119 188.724 118.781 190.016 118.781C191.328 118.781 192.484 119 193.484 119.438C194.495 119.865 195.344 120.464 196.031 121.234C196.719 122.005 197.24 122.917 197.594 123.969C197.948 125.01 198.125 126.151 198.125 127.391V127.719C198.125 128.948 197.948 130.089 197.594 131.141C197.24 132.182 196.719 133.094 196.031 133.875C195.344 134.646 194.5 135.245 193.5 135.672C192.5 136.099 191.349 136.312 190.047 136.312C188.755 136.312 187.604 136.099 186.594 135.672C185.583 135.245 184.734 134.646 184.047 133.875C183.359 133.094 182.839 132.182 182.484 131.141C182.13 130.089 181.953 128.948 181.953 127.719ZM186.844 127.391V127.719C186.844 128.385 186.896 129.01 187 129.594C187.115 130.177 187.297 130.688 187.547 131.125C187.797 131.562 188.125 131.906 188.531 132.156C188.948 132.396 189.453 132.516 190.047 132.516C190.641 132.516 191.141 132.396 191.547 132.156C191.953 131.906 192.281 131.562 192.531 131.125C192.781 130.688 192.958 130.177 193.062 129.594C193.177 129.01 193.234 128.385 193.234 127.719V127.391C193.234 126.734 193.177 126.12 193.062 125.547C192.958 124.964 192.781 124.448 192.531 124C192.281 123.552 191.948 123.203 191.531 122.953C191.125 122.703 190.62 122.578 190.016 122.578C189.432 122.578 188.938 122.703 188.531 122.953C188.125 123.203 187.797 123.552 187.547 124C187.297 124.448 187.115 124.964 187 125.547C186.896 126.12 186.844 126.734 186.844 127.391ZM199.984 127.719V127.391C199.984 126.151 200.161 125.01 200.516 123.969C200.87 122.917 201.391 122.005 202.078 121.234C202.766 120.464 203.609 119.865 204.609 119.438C205.609 119 206.755 118.781 208.047 118.781C209.359 118.781 210.516 119 211.516 119.438C212.526 119.865 213.375 120.464 214.062 121.234C214.75 122.005 215.271 122.917 215.625 123.969C215.979 125.01 216.156 126.151 216.156 127.391V127.719C216.156 128.948 215.979 130.089 215.625 131.141C215.271 132.182 214.75 133.094 214.062 133.875C213.375 134.646 212.531 135.245 211.531 135.672C210.531 136.099 209.38 136.312 208.078 136.312C206.786 136.312 205.635 136.099 204.625 135.672C203.615 135.245 202.766 134.646 202.078 133.875C201.391 133.094 200.87 132.182 200.516 131.141C200.161 130.089 199.984 128.948 199.984 127.719ZM204.875 127.391V127.719C204.875 128.385 204.927 129.01 205.031 129.594C205.146 130.177 205.328 130.688 205.578 131.125C205.828 131.562 206.156 131.906 206.562 132.156C206.979 132.396 207.484 132.516 208.078 132.516C208.672 132.516 209.172 132.396 209.578 132.156C209.984 131.906 210.312 131.562 210.562 131.125C210.812 130.688 210.99 130.177 211.094 129.594C211.208 129.01 211.266 128.385 211.266 127.719V127.391C211.266 126.734 211.208 126.12 211.094 125.547C210.99 124.964 210.812 124.448 210.562 124C210.312 123.552 209.979 123.203 209.562 122.953C209.156 122.703 208.651 122.578 208.047 122.578C207.464 122.578 206.969 122.703 206.562 122.953C206.156 123.203 205.828 123.552 205.578 124C205.328 124.448 205.146 124.964 205.031 125.547C204.927 126.12 204.875 126.734 204.875 127.391ZM228.562 132.219V112H233.469V136H229.062L228.562 132.219ZM218.031 127.75V127.422C218.031 126.141 218.172 124.974 218.453 123.922C218.745 122.859 219.167 121.948 219.719 121.188C220.281 120.417 220.974 119.823 221.797 119.406C222.62 118.99 223.562 118.781 224.625 118.781C225.604 118.781 226.458 119 227.188 119.438C227.917 119.865 228.536 120.469 229.047 121.25C229.568 122.021 229.99 122.932 230.312 123.984C230.635 125.026 230.88 126.156 231.047 127.375V127.938C230.891 129.104 230.646 130.193 230.312 131.203C229.99 132.214 229.568 133.104 229.047 133.875C228.536 134.635 227.911 135.234 227.172 135.672C226.443 136.099 225.583 136.312 224.594 136.312C223.531 136.312 222.589 136.099 221.766 135.672C220.953 135.245 220.271 134.646 219.719 133.875C219.167 133.104 218.745 132.198 218.453 131.156C218.172 130.115 218.031 128.979 218.031 127.75ZM222.906 127.422V127.75C222.906 128.417 222.953 129.036 223.047 129.609C223.151 130.182 223.318 130.688 223.547 131.125C223.776 131.562 224.078 131.906 224.453 132.156C224.828 132.396 225.286 132.516 225.828 132.516C226.557 132.516 227.156 132.349 227.625 132.016C228.094 131.672 228.448 131.198 228.688 130.594C228.927 129.99 229.052 129.286 229.062 128.484V126.844C229.062 126.177 228.995 125.578 228.859 125.047C228.724 124.516 228.521 124.068 228.25 123.703C227.99 123.339 227.661 123.062 227.266 122.875C226.87 122.677 226.401 122.578 225.859 122.578C225.328 122.578 224.875 122.703 224.5 122.953C224.125 123.193 223.818 123.531 223.578 123.969C223.349 124.406 223.177 124.922 223.062 125.516C222.958 126.099 222.906 126.734 222.906 127.422ZM249.453 112V136H244.578V112H249.453ZM248.812 126.953L247.594 126.984C247.594 125.797 247.74 124.708 248.031 123.719C248.333 122.719 248.76 121.849 249.312 121.109C249.865 120.37 250.526 119.797 251.297 119.391C252.078 118.984 252.938 118.781 253.875 118.781C254.708 118.781 255.469 118.901 256.156 119.141C256.844 119.38 257.438 119.76 257.938 120.281C258.438 120.802 258.823 121.484 259.094 122.328C259.365 123.172 259.5 124.198 259.5 125.406V136H254.594V125.375C254.594 124.656 254.49 124.094 254.281 123.688C254.083 123.281 253.792 122.995 253.406 122.828C253.031 122.661 252.573 122.578 252.031 122.578C251.396 122.578 250.87 122.693 250.453 122.922C250.036 123.141 249.708 123.448 249.469 123.844C249.229 124.24 249.057 124.703 248.953 125.234C248.859 125.766 248.812 126.339 248.812 126.953ZM271.641 131.969V124.719C271.641 124.208 271.562 123.771 271.406 123.406C271.25 123.042 271.005 122.755 270.672 122.547C270.339 122.339 269.906 122.234 269.375 122.234C268.927 122.234 268.536 122.312 268.203 122.469C267.88 122.625 267.63 122.849 267.453 123.141C267.286 123.432 267.203 123.792 267.203 124.219H262.328C262.328 123.458 262.5 122.75 262.844 122.094C263.188 121.438 263.677 120.859 264.312 120.359C264.958 119.859 265.729 119.474 266.625 119.203C267.521 118.922 268.526 118.781 269.641 118.781C270.964 118.781 272.141 119.005 273.172 119.453C274.214 119.891 275.036 120.552 275.641 121.438C276.245 122.312 276.547 123.417 276.547 124.75V131.828C276.547 132.849 276.604 133.651 276.719 134.234C276.844 134.807 277.021 135.307 277.25 135.734V136H272.328C272.099 135.51 271.927 134.906 271.812 134.188C271.698 133.458 271.641 132.719 271.641 131.969ZM272.25 125.688L272.281 128.375H269.859C269.318 128.375 268.849 128.443 268.453 128.578C268.068 128.714 267.755 128.901 267.516 129.141C267.276 129.37 267.099 129.641 266.984 129.953C266.88 130.255 266.828 130.589 266.828 130.953C266.828 131.297 266.911 131.609 267.078 131.891C267.245 132.161 267.474 132.375 267.766 132.531C268.057 132.688 268.396 132.766 268.781 132.766C269.417 132.766 269.958 132.641 270.406 132.391C270.865 132.141 271.219 131.839 271.469 131.484C271.719 131.12 271.844 130.781 271.844 130.469L273.016 132.5C272.828 132.917 272.599 133.349 272.328 133.797C272.057 134.234 271.714 134.646 271.297 135.031C270.88 135.406 270.375 135.714 269.781 135.953C269.198 136.193 268.495 136.312 267.672 136.312C266.609 136.312 265.646 136.099 264.781 135.672C263.917 135.234 263.224 134.635 262.703 133.875C262.193 133.115 261.938 132.24 261.938 131.25C261.938 130.365 262.099 129.578 262.422 128.891C262.745 128.203 263.229 127.62 263.875 127.141C264.531 126.661 265.354 126.302 266.344 126.062C267.333 125.812 268.49 125.688 269.812 125.688H272.25ZM279.766 112H284.641V131.984L284.141 136H279.766V112ZM295.188 127.359V127.688C295.188 128.969 295.052 130.135 294.781 131.188C294.521 132.24 294.12 133.151 293.578 133.922C293.036 134.682 292.354 135.271 291.531 135.688C290.708 136.104 289.74 136.312 288.625 136.312C287.594 136.312 286.708 136.099 285.969 135.672C285.229 135.234 284.609 134.63 284.109 133.859C283.609 133.089 283.203 132.188 282.891 131.156C282.589 130.125 282.354 129.016 282.188 127.828V127.266C282.354 126.078 282.589 124.969 282.891 123.938C283.203 122.906 283.609 122.005 284.109 121.234C284.609 120.464 285.224 119.865 285.953 119.438C286.693 119 287.573 118.781 288.594 118.781C289.719 118.781 290.693 118.995 291.516 119.422C292.349 119.849 293.036 120.448 293.578 121.219C294.12 121.979 294.521 122.885 294.781 123.938C295.052 124.979 295.188 126.12 295.188 127.359ZM290.312 127.688V127.359C290.312 126.714 290.266 126.104 290.172 125.531C290.089 124.958 289.938 124.453 289.719 124.016C289.51 123.568 289.214 123.219 288.828 122.969C288.453 122.708 287.969 122.578 287.375 122.578C286.792 122.578 286.297 122.677 285.891 122.875C285.484 123.073 285.156 123.354 284.906 123.719C284.656 124.073 284.474 124.505 284.359 125.016C284.245 125.526 284.182 126.094 284.172 126.719V128.375C284.182 129.208 284.292 129.938 284.5 130.562C284.708 131.188 285.047 131.672 285.516 132.016C285.984 132.349 286.615 132.516 287.406 132.516C288.01 132.516 288.5 132.401 288.875 132.172C289.26 131.932 289.552 131.599 289.75 131.172C289.958 130.745 290.104 130.234 290.188 129.641C290.271 129.047 290.312 128.396 290.312 127.688ZM302.922 119.094V136H298.031V119.094H302.922ZM297.734 114.719C297.734 114.01 297.984 113.432 298.484 112.984C298.984 112.526 299.641 112.297 300.453 112.297C301.266 112.297 301.922 112.526 302.422 112.984C302.932 113.432 303.188 114.01 303.188 114.719C303.188 115.417 302.932 115.995 302.422 116.453C301.922 116.901 301.266 117.125 300.453 117.125C299.641 117.125 298.984 116.901 298.484 116.453C297.984 115.995 297.734 115.417 297.734 114.719ZM315.031 119.094V122.516H305V119.094H315.031ZM307.297 114.906H312.188V130.703C312.188 131.172 312.245 131.531 312.359 131.781C312.474 132.031 312.661 132.208 312.922 132.312C313.182 132.406 313.516 132.453 313.922 132.453C314.214 132.453 314.464 132.443 314.672 132.422C314.88 132.401 315.073 132.375 315.25 132.344V135.875C314.833 136.01 314.391 136.115 313.922 136.188C313.453 136.271 312.943 136.312 312.391 136.312C311.339 136.312 310.427 136.141 309.656 135.797C308.896 135.453 308.312 134.911 307.906 134.172C307.5 133.422 307.297 132.448 307.297 131.25V114.906ZM326.375 131.297C326.375 130.984 326.276 130.708 326.078 130.469C325.891 130.229 325.547 130.01 325.047 129.812C324.557 129.615 323.865 129.417 322.969 129.219C322.125 129.042 321.339 128.812 320.609 128.531C319.88 128.24 319.245 127.891 318.703 127.484C318.161 127.068 317.74 126.578 317.438 126.016C317.135 125.443 316.984 124.792 316.984 124.062C316.984 123.354 317.135 122.682 317.438 122.047C317.75 121.411 318.198 120.849 318.781 120.359C319.375 119.87 320.094 119.484 320.938 119.203C321.792 118.922 322.76 118.781 323.844 118.781C325.333 118.781 326.62 119.016 327.703 119.484C328.786 119.943 329.62 120.589 330.203 121.422C330.786 122.245 331.078 123.188 331.078 124.25H326.203C326.203 123.812 326.12 123.432 325.953 123.109C325.786 122.786 325.531 122.536 325.188 122.359C324.844 122.172 324.391 122.078 323.828 122.078C323.391 122.078 323.005 122.156 322.672 122.312C322.349 122.458 322.094 122.661 321.906 122.922C321.729 123.182 321.641 123.484 321.641 123.828C321.641 124.068 321.693 124.286 321.797 124.484C321.911 124.672 322.083 124.849 322.312 125.016C322.552 125.172 322.859 125.312 323.234 125.438C323.62 125.562 324.089 125.682 324.641 125.797C325.818 126.016 326.891 126.323 327.859 126.719C328.839 127.115 329.62 127.661 330.203 128.359C330.797 129.057 331.094 129.979 331.094 131.125C331.094 131.875 330.922 132.562 330.578 133.188C330.245 133.812 329.76 134.359 329.125 134.828C328.49 135.297 327.729 135.661 326.844 135.922C325.958 136.182 324.958 136.312 323.844 136.312C322.25 136.312 320.901 136.026 319.797 135.453C318.693 134.88 317.859 134.161 317.297 133.297C316.745 132.422 316.469 131.526 316.469 130.609H321.047C321.068 131.172 321.208 131.63 321.469 131.984C321.74 132.339 322.089 132.599 322.516 132.766C322.943 132.922 323.422 133 323.953 133C324.484 133 324.927 132.927 325.281 132.781C325.635 132.635 325.906 132.438 326.094 132.188C326.281 131.927 326.375 131.63 326.375 131.297ZM348.844 132.516C349.365 132.516 349.818 132.417 350.203 132.219C350.589 132.021 350.885 131.745 351.094 131.391C351.312 131.026 351.422 130.589 351.422 130.078H356.016C356.016 131.307 355.698 132.391 355.062 133.328C354.438 134.266 353.594 135 352.531 135.531C351.469 136.052 350.271 136.312 348.938 136.312C347.625 136.312 346.479 136.099 345.5 135.672C344.521 135.234 343.703 134.625 343.047 133.844C342.391 133.062 341.896 132.156 341.562 131.125C341.24 130.083 341.078 128.958 341.078 127.75V127.344C341.078 126.146 341.24 125.026 341.562 123.984C341.896 122.943 342.391 122.031 343.047 121.25C343.703 120.469 344.516 119.865 345.484 119.438C346.464 119 347.609 118.781 348.922 118.781C350.307 118.781 351.531 119.047 352.594 119.578C353.667 120.109 354.505 120.875 355.109 121.875C355.714 122.865 356.016 124.057 356.016 125.453H351.422C351.422 124.911 351.323 124.427 351.125 124C350.938 123.562 350.646 123.219 350.25 122.969C349.865 122.708 349.385 122.578 348.812 122.578C348.219 122.578 347.729 122.708 347.344 122.969C346.969 123.219 346.682 123.568 346.484 124.016C346.286 124.464 346.151 124.974 346.078 125.547C346.005 126.109 345.969 126.708 345.969 127.344V127.75C345.969 128.396 346.005 129.01 346.078 129.594C346.151 130.167 346.286 130.672 346.484 131.109C346.693 131.547 346.984 131.891 347.359 132.141C347.734 132.391 348.229 132.516 348.844 132.516ZM367.391 131.969V124.719C367.391 124.208 367.312 123.771 367.156 123.406C367 123.042 366.755 122.755 366.422 122.547C366.089 122.339 365.656 122.234 365.125 122.234C364.677 122.234 364.286 122.312 363.953 122.469C363.63 122.625 363.38 122.849 363.203 123.141C363.036 123.432 362.953 123.792 362.953 124.219H358.078C358.078 123.458 358.25 122.75 358.594 122.094C358.938 121.438 359.427 120.859 360.062 120.359C360.708 119.859 361.479 119.474 362.375 119.203C363.271 118.922 364.276 118.781 365.391 118.781C366.714 118.781 367.891 119.005 368.922 119.453C369.964 119.891 370.786 120.552 371.391 121.438C371.995 122.312 372.297 123.417 372.297 124.75V131.828C372.297 132.849 372.354 133.651 372.469 134.234C372.594 134.807 372.771 135.307 373 135.734V136H368.078C367.849 135.51 367.677 134.906 367.562 134.188C367.448 133.458 367.391 132.719 367.391 131.969ZM368 125.688L368.031 128.375H365.609C365.068 128.375 364.599 128.443 364.203 128.578C363.818 128.714 363.505 128.901 363.266 129.141C363.026 129.37 362.849 129.641 362.734 129.953C362.63 130.255 362.578 130.589 362.578 130.953C362.578 131.297 362.661 131.609 362.828 131.891C362.995 132.161 363.224 132.375 363.516 132.531C363.807 132.688 364.146 132.766 364.531 132.766C365.167 132.766 365.708 132.641 366.156 132.391C366.615 132.141 366.969 131.839 367.219 131.484C367.469 131.12 367.594 130.781 367.594 130.469L368.766 132.5C368.578 132.917 368.349 133.349 368.078 133.797C367.807 134.234 367.464 134.646 367.047 135.031C366.63 135.406 366.125 135.714 365.531 135.953C364.948 136.193 364.245 136.312 363.422 136.312C362.359 136.312 361.396 136.099 360.531 135.672C359.667 135.234 358.974 134.635 358.453 133.875C357.943 133.115 357.688 132.24 357.688 131.25C357.688 130.365 357.849 129.578 358.172 128.891C358.495 128.203 358.979 127.62 359.625 127.141C360.281 126.661 361.104 126.302 362.094 126.062C363.083 125.812 364.24 125.688 365.562 125.688H368ZM380.281 122.703V136H375.391V119.094H379.984L380.281 122.703ZM379.641 126.953L378.422 126.984C378.422 125.714 378.578 124.573 378.891 123.562C379.203 122.552 379.646 121.693 380.219 120.984C380.802 120.266 381.495 119.719 382.297 119.344C383.109 118.969 384.005 118.781 384.984 118.781C385.776 118.781 386.5 118.896 387.156 119.125C387.812 119.354 388.375 119.724 388.844 120.234C389.323 120.734 389.688 121.401 389.938 122.234C390.188 123.057 390.312 124.073 390.312 125.281V136H385.406V125.266C385.406 124.557 385.307 124.01 385.109 123.625C384.911 123.24 384.62 122.969 384.234 122.812C383.859 122.656 383.401 122.578 382.859 122.578C382.286 122.578 381.797 122.693 381.391 122.922C380.984 123.141 380.651 123.448 380.391 123.844C380.13 124.24 379.938 124.703 379.812 125.234C379.698 125.766 379.641 126.339 379.641 126.953ZM401.484 112H406.359V131.984L405.859 136H401.484V112ZM416.906 127.359V127.688C416.906 128.969 416.771 130.135 416.5 131.188C416.24 132.24 415.839 133.151 415.297 133.922C414.755 134.682 414.073 135.271 413.25 135.688C412.427 136.104 411.458 136.312 410.344 136.312C409.312 136.312 408.427 136.099 407.688 135.672C406.948 135.234 406.328 134.63 405.828 133.859C405.328 133.089 404.922 132.188 404.609 131.156C404.307 130.125 404.073 129.016 403.906 127.828V127.266C404.073 126.078 404.307 124.969 404.609 123.938C404.922 122.906 405.328 122.005 405.828 121.234C406.328 120.464 406.943 119.865 407.672 119.438C408.411 119 409.292 118.781 410.312 118.781C411.438 118.781 412.411 118.995 413.234 119.422C414.068 119.849 414.755 120.448 415.297 121.219C415.839 121.979 416.24 122.885 416.5 123.938C416.771 124.979 416.906 126.12 416.906 127.359ZM412.031 127.688V127.359C412.031 126.714 411.984 126.104 411.891 125.531C411.807 124.958 411.656 124.453 411.438 124.016C411.229 123.568 410.932 123.219 410.547 122.969C410.172 122.708 409.688 122.578 409.094 122.578C408.51 122.578 408.016 122.677 407.609 122.875C407.203 123.073 406.875 123.354 406.625 123.719C406.375 124.073 406.193 124.505 406.078 125.016C405.964 125.526 405.901 126.094 405.891 126.719V128.375C405.901 129.208 406.01 129.938 406.219 130.562C406.427 131.188 406.766 131.672 407.234 132.016C407.703 132.349 408.333 132.516 409.125 132.516C409.729 132.516 410.219 132.401 410.594 132.172C410.979 131.932 411.271 131.599 411.469 131.172C411.677 130.745 411.823 130.234 411.906 129.641C411.99 129.047 412.031 128.396 412.031 127.688ZM427.469 136.312C426.125 136.312 424.922 136.099 423.859 135.672C422.797 135.245 421.896 134.656 421.156 133.906C420.427 133.146 419.87 132.271 419.484 131.281C419.099 130.292 418.906 129.234 418.906 128.109V127.516C418.906 126.255 419.083 125.094 419.438 124.031C419.792 122.969 420.307 122.047 420.984 121.266C421.672 120.474 422.516 119.865 423.516 119.438C424.516 119 425.656 118.781 426.938 118.781C428.135 118.781 429.203 118.979 430.141 119.375C431.078 119.76 431.87 120.318 432.516 121.047C433.161 121.766 433.651 122.635 433.984 123.656C434.328 124.667 434.5 125.802 434.5 127.062V129.062H420.875V125.922H429.719V125.547C429.719 124.953 429.609 124.432 429.391 123.984C429.182 123.536 428.87 123.193 428.453 122.953C428.047 122.703 427.531 122.578 426.906 122.578C426.312 122.578 425.818 122.703 425.422 122.953C425.026 123.203 424.708 123.557 424.469 124.016C424.24 124.464 424.073 124.99 423.969 125.594C423.865 126.188 423.812 126.828 423.812 127.516V128.109C423.812 128.766 423.901 129.365 424.078 129.906C424.255 130.448 424.516 130.911 424.859 131.297C425.203 131.682 425.62 131.984 426.109 132.203C426.599 132.422 427.156 132.531 427.781 132.531C428.552 132.531 429.286 132.385 429.984 132.094C430.682 131.792 431.286 131.323 431.797 130.688L434.078 133.297C433.734 133.797 433.25 134.281 432.625 134.75C432.01 135.208 431.271 135.583 430.406 135.875C429.542 136.167 428.562 136.312 427.469 136.312ZM450.922 136H446.016V117.656C446.016 116.354 446.271 115.26 446.781 114.375C447.302 113.49 448.036 112.818 448.984 112.359C449.932 111.901 451.052 111.672 452.344 111.672C452.792 111.672 453.208 111.703 453.594 111.766C453.99 111.818 454.375 111.891 454.75 111.984V115.625C454.552 115.573 454.349 115.536 454.141 115.516C453.932 115.495 453.682 115.484 453.391 115.484C452.87 115.484 452.422 115.568 452.047 115.734C451.682 115.891 451.401 116.135 451.203 116.469C451.016 116.792 450.922 117.188 450.922 117.656V136ZM454.266 119.094V122.516H443.547V119.094H454.266ZM466.297 131.922V119.094H471.203V136H466.609L466.297 131.922ZM466.812 128.469L468.156 128.438C468.156 129.573 468.021 130.62 467.75 131.578C467.49 132.536 467.094 133.37 466.562 134.078C466.042 134.786 465.391 135.339 464.609 135.734C463.839 136.12 462.938 136.312 461.906 136.312C461.073 136.312 460.307 136.198 459.609 135.969C458.922 135.729 458.328 135.359 457.828 134.859C457.328 134.349 456.943 133.698 456.672 132.906C456.401 132.104 456.266 131.146 456.266 130.031V119.094H461.141V130.062C461.141 130.5 461.193 130.875 461.297 131.188C461.411 131.49 461.562 131.74 461.75 131.938C461.948 132.135 462.188 132.281 462.469 132.375C462.76 132.469 463.078 132.516 463.422 132.516C464.286 132.516 464.964 132.339 465.453 131.984C465.953 131.62 466.302 131.135 466.5 130.531C466.708 129.917 466.812 129.229 466.812 128.469ZM479.156 122.703V136H474.266V119.094H478.859L479.156 122.703ZM478.516 126.953L477.297 126.984C477.297 125.714 477.453 124.573 477.766 123.562C478.078 122.552 478.521 121.693 479.094 120.984C479.677 120.266 480.37 119.719 481.172 119.344C481.984 118.969 482.88 118.781 483.859 118.781C484.651 118.781 485.375 118.896 486.031 119.125C486.688 119.354 487.25 119.724 487.719 120.234C488.198 120.734 488.562 121.401 488.812 122.234C489.062 123.057 489.188 124.073 489.188 125.281V136H484.281V125.266C484.281 124.557 484.182 124.01 483.984 123.625C483.786 123.24 483.495 122.969 483.109 122.812C482.734 122.656 482.276 122.578 481.734 122.578C481.161 122.578 480.672 122.693 480.266 122.922C479.859 123.141 479.526 123.448 479.266 123.844C479.005 124.24 478.812 124.703 478.688 125.234C478.573 125.766 478.516 126.339 478.516 126.953Z" fill="#F7F5E3"/>
<g clip-path="url(#clip1_143_93)">
<path d="M90 1.5C90 6.825 86.0344 11.2266 80.8969 11.9062C80.5641 9.40312 79.4625 7.14375 77.8359 5.37656C79.6313 2.17031 83.0625 0 87 0H88.5C89.3297 0 90 0.670312 90 1.5ZM66 4.5C66 3.67031 66.6703 3 67.5 3H69C74.7984 3 79.5 7.70156 79.5 13.5V15V22.5C79.5 23.3297 78.8297 24 78 24C77.1703 24 76.5 23.3297 76.5 22.5V15C70.7016 15 66 10.2984 66 4.5Z" fill="#006459"/>
</g>
<defs>
<clipPath id="clip0_143_93">
<rect width="60" height="60" fill="white" transform="translate(427)"/>
</clipPath>
<clipPath id="clip1_143_93">
<rect width="24" height="24" fill="white" transform="translate(66)"/>
</clipPath>
</defs>
</svg>
